<?xml version="1.0" encoding="UTF-8" standalone="no"?>
<!DOCTYPE svg PUBLIC "-//W3C//DTD SVG 1.1//EN"
 "http://www.w3.org/Graphics/SVG/1.1/DTD/svg11.dtd">
<!-- Generated by graphviz version 2.38.0 (20140413.2041)
 -->
<!-- Title: G Pages: 1 -->
<svg width="542pt" height="473pt"
 viewBox="0.00 0.00 542.25 473.00" xmlns="http://www.w3.org/2000/svg" xmlns:xlink="http://www.w3.org/1999/xlink">
<g id="graph0" class="graph" transform="scale(1 1) rotate(0) translate(4 469)">
<title>G</title>
<polygon fill="white" stroke="none" points="-4,4 -4,-469 538.25,-469 538.25,4 -4,4"/>
<g id="clust1" class="cluster"><title>cluster_Global</title>
<path fill="none" stroke="gray" d="M20,-8C20,-8 514.25,-8 514.25,-8 520.25,-8 526.25,-14 526.25,-20 526.25,-20 526.25,-445 526.25,-445 526.25,-451 520.25,-457 514.25,-457 514.25,-457 20,-457 20,-457 14,-457 8,-451 8,-445 8,-445 8,-20 8,-20 8,-14 14,-8 20,-8"/>
<text text-anchor="middle" x="267.125" y="-444.2" font-family="Times,serif" font-size="11.00" fill="gray">Global</text>
</g>
<!-- \\Scraper -->
<g id="node1" class="node"><title>\\Scraper</title>
<polygon fill="none" stroke="black" points="485.349,-430 422.933,-430 422.933,-394 485.349,-394 485.349,-430"/>
<text text-anchor="middle" x="454.141" y="-408.7" font-family="Courier,monospace" font-size="11.00">Scraper</text>
</g>
<!-- \\AppWebBase -->
<g id="node2" class="node"><title>\\AppWebBase</title>
<polygon fill="none" stroke="black" points="495.152,-160 413.131,-160 413.131,-124 495.152,-124 495.152,-160"/>
<text text-anchor="middle" x="454.141" y="-138.7" font-family="Courier,monospace" font-size="11.00">AppWebBase</text>
</g>
<!-- \\IWebApplication -->
<g id="node13" class="node"><title>\\IWebApplication</title>
<polygon fill="none" stroke="black" points="308.139,-160 193.106,-160 193.106,-124 308.139,-124 308.139,-160"/>
<text text-anchor="middle" x="250.623" y="-138.7" font-family="Courier,monospace" font-size="11.00">IWebApplication</text>
</g>
<!-- \\AppWebBase&#45;&gt;\\IWebApplication -->
<g id="edge1" class="edge"><title>\\AppWebBase&#45;&gt;\\IWebApplication</title>
<path fill="none" stroke="black" stroke-dasharray="1,5" d="M412.845,-142C385.912,-142 349.831,-142 318.632,-142"/>
<polygon fill="none" stroke="black" points="318.258,-138.5 308.258,-142 318.258,-145.5 318.258,-138.5"/>
</g>
<!-- \\AppCliBase -->
<g id="node3" class="node"><title>\\AppCliBase</title>
<polygon fill="none" stroke="black" points="495.152,-322 413.131,-322 413.131,-286 495.152,-286 495.152,-322"/>
<text text-anchor="middle" x="454.141" y="-300.7" font-family="Courier,monospace" font-size="11.00">AppCliBase</text>
</g>
<!-- \\IClientApplication -->
<g id="node14" class="node"><title>\\IClientApplication</title>
<polygon fill="none" stroke="black" points="317.942,-268 183.303,-268 183.303,-232 317.942,-232 317.942,-268"/>
<text text-anchor="middle" x="250.623" y="-246.7" font-family="Courier,monospace" font-size="11.00">IClientApplication</text>
</g>
<!-- \\AppCliBase&#45;&gt;\\IClientApplication -->
<g id="edge2" class="edge"><title>\\AppCliBase&#45;&gt;\\IClientApplication</title>
<path fill="none" stroke="black" stroke-dasharray="1,5" d="M412.845,-293.202C388.491,-286.676 356.659,-278.146 327.719,-270.391"/>
<polygon fill="none" stroke="black" points="328.596,-267.003 318.03,-267.795 326.784,-273.764 328.596,-267.003"/>
</g>
<!-- \\Factory -->
<g id="node4" class="node"><title>\\Factory</title>
<polygon fill="none" stroke="black" points="485.349,-268 422.933,-268 422.933,-232 485.349,-232 485.349,-268"/>
<text text-anchor="middle" x="454.141" y="-246.7" font-family="Courier,monospace" font-size="11.00">Factory</text>
</g>
<!-- \\LogFile -->
<g id="node5" class="node"><title>\\LogFile</title>
<polygon fill="none" stroke="black" points="485.349,-376 422.933,-376 422.933,-340 485.349,-340 485.349,-376"/>
<text text-anchor="middle" x="454.141" y="-354.7" font-family="Courier,monospace" font-size="11.00">LogFile</text>
</g>
<!-- \\ILogger -->
<g id="node16" class="node"><title>\\ILogger</title>
<polygon fill="none" stroke="black" points="281.83,-322 219.415,-322 219.415,-286 281.83,-286 281.83,-322"/>
<text text-anchor="middle" x="250.623" y="-300.7" font-family="Courier,monospace" font-size="11.00">ILogger</text>
</g>
<!-- \\LogFile&#45;&gt;\\ILogger -->
<g id="edge3" class="edge"><title>\\LogFile&#45;&gt;\\ILogger</title>
<path fill="none" stroke="black" stroke-dasharray="1,5" d="M422.972,-349.916C388.098,-340.571 330.552,-325.15 291.883,-314.788"/>
<polygon fill="none" stroke="black" points="292.563,-311.347 281.998,-312.14 290.751,-318.109 292.563,-311.347"/>
</g>
<!-- \\Peeler_basic -->
<g id="node6" class="node"><title>\\Peeler_basic</title>
<polygon fill="none" stroke="black" points="501.854,-214 406.428,-214 406.428,-178 501.854,-178 501.854,-214"/>
<text text-anchor="middle" x="454.141" y="-192.7" font-family="Courier,monospace" font-size="11.00">Peeler_basic</text>
</g>
<!-- \\IPeeler -->
<g id="node12" class="node"><title>\\IPeeler</title>
<polygon fill="none" stroke="black" points="281.83,-214 219.415,-214 219.415,-178 281.83,-178 281.83,-214"/>
<text text-anchor="middle" x="250.623" y="-192.7" font-family="Courier,monospace" font-size="11.00">IPeeler</text>
</g>
<!-- \\Peeler_basic&#45;&gt;\\IPeeler -->
<g id="edge4" class="edge"><title>\\Peeler_basic&#45;&gt;\\IPeeler</title>
<path fill="none" stroke="black" stroke-dasharray="1,5" d="M406.402,-196C371.78,-196 325.076,-196 292.054,-196"/>
<polygon fill="none" stroke="black" points="291.846,-192.5 281.846,-196 291.846,-199.5 291.846,-192.5"/>
</g>
<!-- \\ConfigurationFile -->
<g id="node7" class="node"><title>\\ConfigurationFile</title>
<polygon fill="none" stroke="black" points="518.36,-106 389.923,-106 389.923,-70 518.36,-70 518.36,-106"/>
<text text-anchor="middle" x="454.141" y="-84.7" font-family="Courier,monospace" font-size="11.00">ConfigurationFile</text>
</g>
<!-- \\AppBase -->
<g id="node8" class="node"><title>\\AppBase</title>
<polygon fill="none" stroke="black" points="281.83,-106 219.415,-106 219.415,-70 281.83,-70 281.83,-106"/>
<text text-anchor="middle" x="250.623" y="-84.7" font-family="Courier,monospace" font-size="11.00">AppBase</text>
</g>
<!-- \\IApplication -->
<g id="node15" class="node"><title>\\IApplication</title>
<polygon fill="none" stroke="black" points="111.32,-268 15.8933,-268 15.8933,-232 111.32,-232 111.32,-268"/>
<text text-anchor="middle" x="63.6064" y="-246.7" font-family="Courier,monospace" font-size="11.00">IApplication</text>
</g>
<!-- \\AppBase&#45;&gt;\\IApplication -->
<g id="edge5" class="edge"><title>\\AppBase&#45;&gt;\\IApplication</title>
<path fill="none" stroke="black" stroke-dasharray="1,5" d="M219.35,-96.9502C207.449,-101.301 194.066,-107.283 183.213,-115 140.631,-145.275 103.004,-193.712 82.0721,-223.593"/>
<polygon fill="none" stroke="black" points="79.1647,-221.644 76.3726,-231.864 84.9288,-225.616 79.1647,-221.644"/>
</g>
<!-- \\AppWebFrontend -->
<g id="node9" class="node"><title>\\AppWebFrontend</title>
<polygon fill="none" stroke="black" points="508.557,-52 399.726,-52 399.726,-16 508.557,-16 508.557,-52"/>
<text text-anchor="middle" x="454.141" y="-30.7" font-family="Courier,monospace" font-size="11.00">AppWebFrontend</text>
</g>
<!-- \\AppWebFrontend&#45;&gt;\\IWebApplication -->
<g id="edge6" class="edge"><title>\\AppWebFrontend&#45;&gt;\\IWebApplication</title>
<path fill="none" stroke="black" stroke-dasharray="1,5" d="M407.344,-52.0471C401.411,-54.8318 395.501,-57.8404 390.032,-61 355.397,-81.0099 352.847,-95.3046 318.032,-115 315.216,-116.593 312.286,-118.142 309.296,-119.637"/>
<polygon fill="none" stroke="black" points="307.726,-116.508 300.194,-123.96 310.729,-122.831 307.726,-116.508"/>
</g>
<!-- \\AppPeelEngine -->
<g id="node10" class="node"><title>\\AppPeelEngine</title>
<polygon fill="none" stroke="black" points="301.437,-430 199.808,-430 199.808,-394 301.437,-394 301.437,-430"/>
<text text-anchor="middle" x="250.623" y="-408.7" font-family="Courier,monospace" font-size="11.00">AppPeelEngine</text>
</g>
<!-- \\AppPeelEngine&#45;&gt;\\IApplication -->
<g id="edge7" class="edge"><title>\\AppPeelEngine&#45;&gt;\\IApplication</title>
<path fill="none" stroke="black" stroke-dasharray="1,5" d="M199.676,-394.692C193.909,-391.833 188.285,-388.606 183.213,-385 140.631,-354.725 103.004,-306.288 82.0721,-276.407"/>
<polygon fill="none" stroke="black" points="84.9288,-274.384 76.3726,-268.136 79.1647,-278.356 84.9288,-274.384"/>
</g>
<!-- \\AppEnabler -->
<g id="node11" class="node"><title>\\AppEnabler</title>
<polygon fill="none" stroke="black" points="291.633,-376 209.612,-376 209.612,-340 291.633,-340 291.633,-376"/>
<text text-anchor="middle" x="250.623" y="-354.7" font-family="Courier,monospace" font-size="11.00">AppEnabler</text>
</g>
<!-- \\AppEnabler&#45;&gt;\\IApplication -->
<g id="edge8" class="edge"><title>\\AppEnabler&#45;&gt;\\IApplication</title>
<path fill="none" stroke="black" stroke-dasharray="1,5" d="M209.307,-343.215C200.543,-339.56 191.437,-335.415 183.213,-331 152.297,-314.404 119.532,-291.579 96.2921,-274.387"/>
<polygon fill="none" stroke="black" points="98.2884,-271.51 88.1819,-268.33 94.0998,-277.118 98.2884,-271.51"/>
</g>
<!-- \\IWebApplication&#45;&gt;\\IApplication -->
<g id="edge9" class="edge"><title>\\IWebApplication&#45;&gt;\\IApplication</title>
<path fill="none" stroke="black" d="M201.537,-160.122C195.277,-162.895 189.025,-165.88 183.213,-169 152.297,-185.596 119.532,-208.421 96.2921,-225.613"/>
<polygon fill="none" stroke="black" points="94.0998,-222.882 88.1819,-231.67 98.2884,-228.49 94.0998,-222.882"/>
</g>
<!-- \\IClientApplication&#45;&gt;\\IApplication -->
<g id="edge10" class="edge"><title>\\IClientApplication&#45;&gt;\\IApplication</title>
<path fill="none" stroke="black" d="M183.089,-250C162.979,-250 141.087,-250 121.655,-250"/>
<polygon fill="none" stroke="black" points="121.441,-246.5 111.441,-250 121.441,-253.5 121.441,-246.5"/>
</g>
</g>
</svg>
